<svg xmlns="http://www.w3.org/2000/svg" width="32" height="32" viewBox="0 0 32 32">
  <g fill-rule="evenodd">
    <path fill-rule="nonzero" d="M28 15a1 1 0 0 1 0 2H15a1 1 0 0 1 0-2h13z"/>
    <path d="M23 25v3H7V4h16v3h2V3a1 1 0 0 0-1-1H6a1 1 0 0 0-1 1v26a1 1 0 0 0 1 1h18a1 1 0 0 0 1-1v-4h-2z"/>
    <g fill-rule="nonzero" stroke-linecap="round" stroke-linejoin="round">
      <path d="M15.707 16.707a1 1 0 1 1-1.414-1.414l4-4a1 1 0 0 1 1.414 1.414l-4 4z"/>
      <path d="M14.293 16.707a1 1 0 0 1 1.414-1.414l4 4a1 1 0 0 1-1.414 1.414l-4-4z"/>
      <path d="M25 8a1 1 0 1 1-2 0V6a1 1 0 1 1 2 0v2z"/>
      <path d="M25 26a1 1 0 0 1-2 0v-2a1 1 0 0 1 2 0v2z"/>
    </g>
  </g>
</svg>